<svg xmlns="http://www.w3.org/2000/svg" xmlns:xlink="http://www.w3.org/1999/xlink" width="2193" zoomAndPan="magnify" viewBox="0 0 1644.75 374.999991" height="500" preserveAspectRatio="xMidYMid meet" version="1.0"><defs><g/><clipPath id="9325f3cc66"><path d="M 7.042969 8.015625 L 365.039062 8.015625 L 365.039062 366.007812 L 7.042969 366.007812 Z M 7.042969 8.015625 " clip-rule="nonzero"/></clipPath><clipPath id="db7b8ae0be"><path d="M 186.042969 8.015625 C 87.183594 8.015625 7.042969 88.15625 7.042969 187.011719 C 7.042969 285.871094 87.183594 366.007812 186.042969 366.007812 C 284.898438 366.007812 365.039062 285.871094 365.039062 187.011719 C 365.039062 88.15625 284.898438 8.015625 186.042969 8.015625 Z M 186.042969 8.015625 " clip-rule="nonzero"/></clipPath><clipPath id="0a45e46a9e"><path d="M 0.0429688 0.015625 L 358.039062 0.015625 L 358.039062 358.007812 L 0.0429688 358.007812 Z M 0.0429688 0.015625 " clip-rule="nonzero"/></clipPath><clipPath id="ddbd8ae346"><path d="M 179.042969 0.015625 C 80.183594 0.015625 0.0429688 80.15625 0.0429688 179.011719 C 0.0429688 277.871094 80.183594 358.007812 179.042969 358.007812 C 277.898438 358.007812 358.039062 277.871094 358.039062 179.011719 C 358.039062 80.15625 277.898438 0.015625 179.042969 0.015625 Z M 179.042969 0.015625 " clip-rule="nonzero"/></clipPath><clipPath id="dd0a1ac4d8"><rect x="0" width="359" y="0" height="359"/></clipPath><clipPath id="8c41619bec"><path d="M 0 0.0273438 L 373.957031 0.0273438 L 373.957031 373.988281 L 0 373.988281 Z M 0 0.0273438 " clip-rule="nonzero"/></clipPath><clipPath id="44e407559d"><path d="M 186.980469 0.0273438 C 83.714844 0.0273438 0 83.742188 0 187.007812 C 0 290.273438 83.714844 373.988281 186.980469 373.988281 C 290.246094 373.988281 373.957031 290.273438 373.957031 187.007812 C 373.957031 83.742188 290.246094 0.0273438 186.980469 0.0273438 Z M 186.980469 0.0273438 " clip-rule="nonzero"/></clipPath><clipPath id="ee10c37e5f"><path d="M 19.984375 20.160156 L 354.433594 20.160156 L 354.433594 354.609375 L 19.984375 354.609375 Z M 19.984375 20.160156 " clip-rule="nonzero"/></clipPath><clipPath id="63e85f0108"><path d="M 187.238281 20.160156 C 94.863281 20.160156 19.984375 95.039062 19.984375 187.414062 C 19.984375 279.785156 94.863281 354.667969 187.238281 354.667969 C 279.609375 354.667969 354.492188 279.785156 354.492188 187.414062 C 354.492188 95.039062 279.609375 20.160156 187.238281 20.160156 Z M 187.238281 20.160156 " clip-rule="nonzero"/></clipPath><clipPath id="e1b3827cf2"><path d="M 141 225 L 234 225 L 234 330 L 141 330 Z M 141 225 " clip-rule="nonzero"/></clipPath><clipPath id="29113bcb43"><path d="M 142.148438 225.125 L 234.371094 226.757812 L 232.539062 330.226562 L 140.316406 328.59375 Z M 142.148438 225.125 " clip-rule="nonzero"/></clipPath><clipPath id="016d673b73"><path d="M 138.625 225.066406 L 237.3125 226.8125 L 235.441406 332.550781 L 136.753906 330.804688 Z M 138.625 225.066406 " clip-rule="nonzero"/></clipPath><clipPath id="60552168b1"><path d="M 188.3125 225.945312 C 162.816406 225.496094 141.738281 248.296875 141.234375 276.878906 C 140.726562 305.457031 160.984375 328.992188 186.480469 329.441406 C 211.976562 329.894531 233.054688 307.089844 233.558594 278.511719 C 234.066406 249.929688 213.808594 226.398438 188.3125 225.945312 Z M 188.3125 225.945312 " clip-rule="nonzero"/></clipPath><clipPath id="e714cd54be"><path d="M 51 101 L 325 101 L 325 273 L 51 273 Z M 51 101 " clip-rule="nonzero"/></clipPath><clipPath id="f91247d857"><path d="M 70.699219 76.941406 L 341.214844 236.769531 L 305.742188 296.8125 L 35.226562 136.984375 Z M 70.699219 76.941406 " clip-rule="nonzero"/></clipPath><clipPath id="34add207a9"><path d="M 70.71875 76.953125 L 341.636719 237.015625 L 305.1875 298.710938 L 34.269531 138.648438 Z M 70.71875 76.953125 " clip-rule="nonzero"/></clipPath><clipPath id="c0ae3cb3b5"><path d="M 205.914062 156.828125 C 131.246094 112.714844 62.734375 90.464844 52.890625 107.132812 C 43.042969 123.796875 95.589844 173.070312 170.253906 217.183594 C 244.917969 261.296875 313.429688 283.546875 323.277344 266.882812 C 333.125 250.214844 280.578125 200.941406 205.914062 156.828125 Z M 205.914062 156.828125 " clip-rule="nonzero"/></clipPath><clipPath id="4c31b434fd"><path d="M 157 89 L 218 89 L 218 148 L 157 148 Z M 157 89 " clip-rule="nonzero"/></clipPath><clipPath id="c43727cdb2"><path d="M 158 88.507812 L 217.980469 89.570312 L 216.945312 148.050781 L 156.964844 146.992188 Z M 158 88.507812 " clip-rule="nonzero"/></clipPath><clipPath id="1a4068b424"><path d="M 155.71875 88.46875 L 219.699219 89.601562 L 218.648438 149.011719 L 154.664062 147.878906 Z M 155.71875 88.46875 " clip-rule="nonzero"/></clipPath><clipPath id="8623684e69"><path d="M 187.929688 89.039062 C 171.402344 88.746094 157.773438 101.53125 157.488281 117.597656 C 157.203125 133.664062 170.371094 146.921875 186.902344 147.214844 C 203.429688 147.507812 217.0625 134.722656 217.34375 118.65625 C 217.628906 102.589844 204.460938 89.332031 187.929688 89.039062 Z M 187.929688 89.039062 " clip-rule="nonzero"/></clipPath><clipPath id="f2f8483376"><path d="M 50 102 L 324 102 L 324 273 L 50 273 Z M 50 102 " clip-rule="nonzero"/></clipPath><clipPath id="173052c8ec"><path d="M 33.816406 236.746094 L 304.71875 77.574219 L 340.046875 137.703125 L 69.144531 296.875 Z M 33.816406 236.746094 " clip-rule="nonzero"/></clipPath><clipPath id="a65f2abb8f"><path d="M 33.835938 236.734375 L 305.140625 77.328125 L 341.441406 139.109375 L 70.136719 298.515625 Z M 33.835938 236.734375 " clip-rule="nonzero"/></clipPath><clipPath id="cb2a42d142"><path d="M 169.222656 157.1875 C 94.449219 201.121094 41.785156 250.265625 51.59375 266.957031 C 61.398438 283.648438 129.964844 261.5625 204.734375 217.628906 C 279.507812 173.695312 332.171875 124.550781 322.367188 107.859375 C 312.558594 91.171875 243.996094 113.253906 169.222656 157.1875 Z M 169.222656 157.1875 " clip-rule="nonzero"/></clipPath><clipPath id="827d6e6c8d"><path d="M 153.191406 153.367188 L 221.277344 153.367188 L 221.277344 221.453125 L 153.191406 221.453125 Z M 153.191406 153.367188 " clip-rule="nonzero"/></clipPath><clipPath id="6414285a40"><path d="M 187.234375 153.367188 C 168.433594 153.367188 153.191406 168.609375 153.191406 187.410156 C 153.191406 206.210938 168.433594 221.453125 187.234375 221.453125 C 206.035156 221.453125 221.277344 206.210938 221.277344 187.410156 C 221.277344 168.609375 206.035156 153.367188 187.234375 153.367188 Z M 187.234375 153.367188 " clip-rule="nonzero"/></clipPath><clipPath id="87ac3bc7a2"><path d="M 392 329 L 1644.5 329 L 1644.5 361 L 392 361 Z M 392 329 " clip-rule="nonzero"/></clipPath></defs><g clip-path="url(#9325f3cc66)"><g clip-path="url(#db7b8ae0be)"><g transform="matrix(1, 0, 0, 1, 7, 8)"><g clip-path="url(#dd0a1ac4d8)"><g clip-path="url(#0a45e46a9e)"><g clip-path="url(#ddbd8ae346)"><path fill="#ecec00" d="M 0.0429688 0.015625 L 358.039062 0.015625 L 358.039062 358.007812 L 0.0429688 358.007812 Z M 0.0429688 0.015625 " fill-opacity="1" fill-rule="nonzero"/></g></g></g></g></g></g><g clip-path="url(#8c41619bec)"><g clip-path="url(#44e407559d)"><path stroke-linecap="butt" transform="matrix(0.749886, 0, 0, 0.749886, -0.000000000000021313, 0.0284909)" fill="none" stroke-linejoin="miter" d="M 249.345181 -0.00152982 C 111.636755 -0.00152982 0.000000000000028422 111.635225 0.000000000000028422 249.343651 C 0.000000000000028422 387.052076 111.636755 498.688831 249.345181 498.688831 C 387.053606 498.688831 498.685152 387.052076 498.685152 249.343651 C 498.685152 111.635225 387.053606 -0.00152982 249.345181 -0.00152982 Z M 249.345181 -0.00152982 " stroke="#5c5c5c" stroke-width="26" stroke-opacity="1" stroke-miterlimit="4"/></g></g><g clip-path="url(#ee10c37e5f)"><g clip-path="url(#63e85f0108)"><path stroke-linecap="butt" transform="matrix(0.749886, 0, 0, 0.749886, 19.98257, 20.158331)" fill="none" stroke-linejoin="miter" d="M 223.041521 0.00243432 C 99.856128 0.00243432 0.0024065 99.856155 0.0024065 223.041548 C 0.0024065 346.221732 99.856128 446.080663 223.041521 446.080663 C 346.221705 446.080663 446.080635 346.221732 446.080635 223.041548 C 446.080635 99.856155 346.221705 0.00243432 223.041521 0.00243432 Z M 223.041521 0.00243432 " stroke="#5c5c5c" stroke-width="30" stroke-opacity="1" stroke-miterlimit="4"/></g></g><g clip-path="url(#e1b3827cf2)"><g clip-path="url(#29113bcb43)"><g clip-path="url(#016d673b73)"><g clip-path="url(#60552168b1)"><path stroke-linecap="butt" transform="matrix(0.749769, 0.0132679, -0.0132679, 0.749769, 142.148973, 225.128767)" fill="none" stroke-linejoin="miter" d="M 61.570357 -0.000487019 C 27.56512 0.00212691 -0.000945089 30.900361 0.0015639 69.021453 C -0.00122759 107.137429 27.564369 138.039522 61.569607 138.036908 C 95.574936 138.039502 123.140909 107.13606 123.138492 69.020176 C 123.141191 30.898991 95.575687 0.00210736 61.570357 -0.000487019 Z M 61.570357 -0.000487019 " stroke="#5c5c5c" stroke-width="22" stroke-opacity="1" stroke-miterlimit="4"/></g></g></g></g><g clip-path="url(#e714cd54be)"><g clip-path="url(#f91247d857)"><g clip-path="url(#34add207a9)"><g clip-path="url(#c0ae3cb3b5)"><path stroke-linecap="butt" transform="matrix(0.645622, 0.381446, -0.381446, 0.645622, 70.718825, 76.953266)" fill="none" stroke-linejoin="miter" d="M 209.402317 -0.00141331 C 93.750919 0.000962892 -0.00176314 20.929049 0.00285703 46.743243 C 0.000342619 72.555602 93.749862 93.485837 209.401259 93.483461 C 325.048172 93.483734 418.800854 72.555649 418.803369 46.74329 C 418.803233 20.926445 325.049229 -0.00113977 209.402317 -0.00141331 Z M 209.402317 -0.00141331 " stroke="#5c5c5c" stroke-width="20" stroke-opacity="1" stroke-miterlimit="4"/></g></g></g></g><g clip-path="url(#4c31b434fd)"><g clip-path="url(#c43727cdb2)"><g clip-path="url(#1a4068b424)"><g clip-path="url(#8623684e69)"><path stroke-linecap="butt" transform="matrix(0.749769, 0.0132679, -0.0132679, 0.749769, 158.002148, 88.508417)" fill="none" stroke-linejoin="miter" d="M 39.915726 0.00139665 C 17.872454 0.00072916 0.00232169 17.369096 0.0011952 38.797602 C 0.0000687082 60.226108 17.870094 77.592419 39.918573 77.592995 C 61.961845 77.593662 79.837185 60.225203 79.833104 38.796789 C 79.83423 17.368283 61.964205 0.00197196 39.915726 0.00139665 Z M 39.915726 0.00139665 " stroke="#5c5c5c" stroke-width="20" stroke-opacity="1" stroke-miterlimit="4"/></g></g></g></g><path stroke-linecap="butt" transform="matrix(-0.310285, 0.68268, -0.68268, -0.310285, 237.24269, 28.120818)" fill="none" stroke-linejoin="miter" d="M 26.252967 3.500554 L 105.049575 3.500293 " stroke="#5c5c5c" stroke-width="7" stroke-opacity="1" stroke-miterlimit="4"/><path stroke-linecap="round" transform="matrix(-0.310285, 0.68268, -0.68268, -0.310285, 237.24269, 28.120818)" fill-opacity="1" fill="#5c5c5c" fill-rule="nonzero" stroke-linejoin="round" d="M 3.502848 3.501176 C 3.498708 -2.298981 8.200104 -6.999238 14.002417 -6.998636 C 19.797832 -7.00062 24.498089 -2.299224 24.502229 3.500934 C 24.499471 9.298504 19.798075 13.998761 14.002659 14.000745 C 8.200347 14.000143 3.50009 9.298747 3.502848 3.501176 " stroke="#5c5c5c" stroke-width="7" stroke-opacity="1" stroke-miterlimit="4"/><g clip-path="url(#f2f8483376)"><g clip-path="url(#173052c8ec)"><g clip-path="url(#a65f2abb8f)"><g clip-path="url(#cb2a42d142)"><path stroke-linecap="butt" transform="matrix(0.646544, -0.379882, 0.379882, 0.646544, 33.835929, 236.73551)" fill="none" stroke-linejoin="miter" d="M 209.401065 -0.00056128 C 93.750128 -0.000698456 -0.000570755 20.926502 0.00107176 46.743829 C -0.00177698 72.558517 93.753357 93.485066 209.399802 93.482564 C 325.050739 93.482701 418.801438 72.555501 418.804287 46.740813 C 418.800005 20.927977 325.052002 -0.000424104 209.401065 -0.00056128 Z M 209.401065 -0.00056128 " stroke="#5c5c5c" stroke-width="20" stroke-opacity="1" stroke-miterlimit="4"/></g></g></g></g><path stroke-linecap="butt" transform="matrix(0.34559, 0.665505, -0.665505, 0.34559, 137.932651, 27.074077)" fill="none" stroke-linejoin="miter" d="M 26.25131 3.499691 L 105.168499 3.499026 " stroke="#5c5c5c" stroke-width="7" stroke-opacity="1" stroke-miterlimit="4"/><path stroke-linecap="round" transform="matrix(0.34559, 0.665505, -0.665505, 0.34559, 137.932651, 27.074077)" fill-opacity="1" fill="#5c5c5c" fill-rule="nonzero" stroke-linejoin="round" d="M 3.500164 3.500761 C 3.500435 -2.298268 8.201881 -7.000163 14.00091 -6.999892 C 19.79994 -6.999621 24.501835 -2.298175 24.501564 3.500854 C 24.501292 9.299883 19.799846 14.001779 14.000817 14.001507 C 8.201788 14.001236 3.499893 9.29979 3.500164 3.500761 " stroke="#5c5c5c" stroke-width="7" stroke-opacity="1" stroke-miterlimit="4"/><g clip-path="url(#827d6e6c8d)"><g clip-path="url(#6414285a40)"><path stroke-linecap="butt" transform="matrix(0.749886, 0, 0, 0.749886, 153.189872, 153.365631)" fill="none" stroke-linejoin="miter" d="M 45.399575 0.00207553 C 20.328054 0.00207553 0.00204579 20.328083 0.00204579 45.399605 C 0.00204579 70.471126 20.328054 90.797134 45.399575 90.797134 C 70.471096 90.797134 90.797104 70.471126 90.797104 45.399605 C 90.797104 20.328083 70.471096 0.00207553 45.399575 0.00207553 Z M 45.399575 0.00207553 " stroke="#5c5c5c" stroke-width="20" stroke-opacity="1" stroke-miterlimit="4"/></g></g><path stroke-linecap="butt" transform="matrix(0.749886, 0, 0, 0.749886, 147.401323, 273.297227)" fill="none" stroke-linejoin="miter" d="M 1.746418 3.661546 C 34.668089 19.648351 69.324399 19.648351 105.715348 3.661546 " stroke="#5c5c5c" stroke-width="8" stroke-opacity="1" stroke-miterlimit="4"/><path stroke-linecap="butt" transform="matrix(0.749886, 0, 0, 0.749886, 147.437911, 295.559204)" fill="none" stroke-linejoin="miter" d="M 1.494471 3.708083 C 36.348728 17.762303 71.025875 17.762303 105.515493 3.708083 " stroke="#5c5c5c" stroke-width="8" stroke-opacity="1" stroke-miterlimit="4"/><path stroke-linecap="butt" transform="matrix(0.749886, 0, 0, 0.749886, 151.770831, 250.614611)" fill="none" stroke-linejoin="miter" d="M 1.649559 3.649824 C 31.440546 17.151876 61.413853 17.151876 91.569479 3.649824 " stroke="#5c5c5c" stroke-width="8" stroke-opacity="1" stroke-miterlimit="4"/><path stroke-linecap="butt" transform="matrix(0.749886, 0, 0, 0.749886, 156.42093, 175.081437)" fill="none" stroke-linejoin="miter" d="M 0.730537 3.933683 C 30.094376 9.392846 57.1662 9.392846 81.940799 3.933683 " stroke="#5c5c5c" stroke-width="8" stroke-opacity="1" stroke-miterlimit="4"/><path stroke-linecap="butt" transform="matrix(0.749886, 0, 0, 0.749886, 156.265533, 192.050975)" fill="none" stroke-linejoin="miter" d="M 1.005484 3.870122 C 28.54092 11.006623 55.607535 11.006623 82.210537 3.870122 " stroke="#5c5c5c" stroke-width="8" stroke-opacity="1" stroke-miterlimit="4"/><g fill="#5c5c5c" fill-opacity="1"><g transform="translate(383.438352, 298.981102)"><g><path d="M 179.53125 -112.546875 C 192.550781 -108.617188 202.882812 -101.953125 210.53125 -92.546875 C 218.175781 -83.148438 222 -71.9375 222 -58.90625 C 222 -40.71875 214.660156 -26.351562 199.984375 -15.8125 C 185.304688 -5.269531 165.050781 0 139.21875 0 L 23.5625 0 L 23.5625 -217.046875 L 136.421875 -217.046875 C 160.398438 -217.046875 179.160156 -212.238281 192.703125 -202.625 C 206.242188 -193.007812 213.015625 -179.519531 213.015625 -162.15625 C 213.015625 -150.789062 210.015625 -140.710938 204.015625 -131.921875 C 198.023438 -123.140625 189.863281 -116.679688 179.53125 -112.546875 Z M 126.203125 -174.875 L 75.96875 -174.875 L 75.96875 -128.671875 L 126.203125 -128.671875 C 138.179688 -128.671875 146.910156 -130.632812 152.390625 -134.5625 C 157.867188 -138.488281 160.609375 -144.28125 160.609375 -151.9375 C 160.609375 -159.988281 157.765625 -165.820312 152.078125 -169.4375 C 146.398438 -173.0625 137.773438 -174.875 126.203125 -174.875 Z M 75.96875 -42.171875 L 132.09375 -42.171875 C 144.90625 -42.171875 154.253906 -44.1875 160.140625 -48.21875 C 166.035156 -52.25 168.984375 -58.191406 168.984375 -66.046875 C 168.984375 -74.515625 165.828125 -80.660156 159.515625 -84.484375 C 153.210938 -88.316406 143.757812 -90.234375 131.15625 -90.234375 L 75.96875 -90.234375 Z M 75.96875 -42.171875 "/></g></g></g><g fill="#5c5c5c" fill-opacity="1"><g transform="translate(617.535397, 298.981102)"><g><path d="M 76.890625 0 L 23.5625 0 L 23.5625 -217.046875 L 76.890625 -217.046875 Z M 76.890625 0 "/></g></g></g><g fill="#5c5c5c" fill-opacity="1"><g transform="translate(717.995564, 298.981102)"><g><path d="M 75.96875 -90.234375 L 75.96875 -44.03125 L 203.40625 -44.03125 L 203.40625 0 L 23.5625 0 L 23.5625 -217.046875 L 200.296875 -217.046875 L 200.296875 -173.015625 L 75.96875 -173.015625 L 75.96875 -132.09375 L 186.03125 -132.09375 L 186.03125 -90.234375 Z M 75.96875 -90.234375 "/></g></g></g><g fill="#ecec00" fill-opacity="1"><g transform="translate(934.428801, 298.981102)"><g><path d="M 76.890625 0 L 23.5625 0 L 23.5625 -217.046875 L 72.859375 -217.046875 L 181.078125 -84.640625 L 181.078125 -217.046875 L 234.40625 -217.046875 L 234.40625 0 L 186.65625 0 L 76.890625 -134.5625 Z M 76.890625 0 "/></g></g></g><g fill="#ecec00" fill-opacity="1"><g transform="translate(1192.400657, 298.981102)"><g><path d="M 75.96875 -90.234375 L 75.96875 -44.03125 L 203.40625 -44.03125 L 203.40625 0 L 23.5625 0 L 23.5625 -217.046875 L 200.296875 -217.046875 L 200.296875 -173.015625 L 75.96875 -173.015625 L 75.96875 -132.09375 L 186.03125 -132.09375 L 186.03125 -90.234375 Z M 75.96875 -90.234375 "/></g></g></g><g fill="#ecec00" fill-opacity="1"><g transform="translate(1408.824142, 298.981102)"><g><path d="M 131.78125 -110.375 L 226.03125 -0.3125 L 161.234375 -0.3125 L 77.203125 -98.296875 L 77.203125 0 L 23.875 0 L 23.5625 -217.046875 L 77.203125 -217.046875 L 77.203125 -121.234375 L 158.75 -217.359375 L 223.859375 -217.359375 Z M 131.78125 -110.375 "/></g></g></g><g clip-path="url(#87ac3bc7a2)"><path stroke-linecap="butt" transform="matrix(0.749886, 0, 0, 0.749886, 407.782049, 329.365089)" fill="none" stroke-linejoin="miter" d="M -0.001065 20.500706 L 1637.711437 20.500706 " stroke="#ecec00" stroke-width="41" stroke-opacity="1" stroke-miterlimit="4"/></g></svg>