<svg width="31" height="31" viewBox="0 0 31 31" fill="none" xmlns="http://www.w3.org/2000/svg">
<g clip-path="url(#clip0_135_898)">
<path d="M29.862 1.13927C29.3989 0.670563 28.8228 0.329211 28.1892 0.148198C27.5557 -0.0328142 26.8861 -0.0473692 26.2453 0.10594L5.57867 4.45886C4.3885 4.62208 3.26753 5.11435 2.34202 5.88022C1.4165 6.6461 0.723183 7.65516 0.340155 8.79377C-0.0428734 9.93239 -0.100404 11.1553 0.174043 12.3249C0.44849 13.4944 1.04401 14.5641 1.89355 15.4135L4.11263 17.6313C4.23273 17.7513 4.32798 17.8939 4.39292 18.0508C4.45786 18.2078 4.49122 18.3759 4.49109 18.5458V22.6378C4.49394 23.2131 4.62638 23.7804 4.87859 24.2976L4.86825 24.3066L4.90184 24.3402C5.28031 25.1012 5.89846 25.7166 6.66109 26.0917L6.69467 26.1253L6.70371 26.1149C7.22085 26.3671 7.78816 26.4996 8.3635 26.5024H12.4555C12.7979 26.5022 13.1263 26.6378 13.3687 26.8796L15.5865 29.0974C16.1813 29.6988 16.8893 30.1766 17.6697 30.5031C18.45 30.8297 19.2873 30.9986 20.1332 31C20.8381 30.9991 21.5382 30.884 22.2063 30.659C23.3345 30.2886 24.3367 29.6102 25.0999 28.7005C25.8631 27.7908 26.3569 26.6859 26.5256 25.5104L30.885 4.79856C31.0463 4.15227 31.0368 3.47515 30.8574 2.83363C30.6781 2.19212 30.3351 1.60824 29.862 1.13927ZM5.94163 15.8074L3.72125 13.5896C3.20422 13.0851 2.84185 12.4435 2.67667 11.7402C2.51148 11.0369 2.55033 10.3011 2.78867 9.61907C3.01974 8.9194 3.44691 8.30082 4.01937 7.83691C4.59182 7.37299 5.28548 7.08325 6.01784 7.00215L26.4791 2.69444L7.07184 22.1043V18.5458C7.07379 18.0373 6.97491 17.5335 6.78092 17.0634C6.58692 16.5934 6.30166 16.1665 5.94163 15.8074ZM23.9875 25.0687C23.8883 25.7821 23.5923 26.4538 23.1325 27.0083C22.6728 27.5628 22.0677 27.9782 21.385 28.2079C20.7023 28.4376 19.9691 28.4724 19.2677 28.3085C18.5663 28.1446 17.9244 27.7885 17.4142 27.28L15.1925 25.0584C14.8339 24.6978 14.4074 24.4119 13.9376 24.2172C13.4678 24.0226 12.964 23.923 12.4555 23.9243H8.89696L28.3068 4.52086L23.9875 25.0687Z" fill="black"/>
</g>
<defs>
<clipPath id="clip0_135_898">
<rect width="31" height="31" fill="white"/>
</clipPath>
</defs>
</svg>
