<svg width="19" height="19" viewBox="0 0 19 19" fill="none" xmlns="http://www.w3.org/2000/svg">
<g clip-path="url(#clip0_2278_1339)">
<path d="M12.7007 11.0838H6.29929C5.25889 11.0851 4.26146 11.4989 3.52579 12.2346C2.79011 12.9703 2.37626 13.9677 2.375 15.0081V19.0005H16.625V15.0081C16.6237 13.9677 16.2099 12.9703 15.4742 12.2346C14.7385 11.4989 13.7411 11.0851 12.7007 11.0838Z" fill="#374957"/>
<path d="M9.5 9.5C12.1234 9.5 14.25 7.37335 14.25 4.75C14.25 2.12665 12.1234 0 9.5 0C6.87665 0 4.75 2.12665 4.75 4.75C4.75 7.37335 6.87665 9.5 9.5 9.5Z" fill="#374957"/>
</g>
<defs>
<clipPath id="clip0_2278_1339">
<rect width="19" height="19" fill="white"/>
</clipPath>
</defs>
</svg>
