<svg xmlns="http://www.w3.org/2000/svg" xmlns:xlink="http://www.w3.org/1999/xlink" width="2193" zoomAndPan="magnify" viewBox="0 0 1644.75 374.999991" height="500" preserveAspectRatio="xMidYMid meet" version="1.0"><defs><g/><clipPath id="faeafcf509"><path d="M 6.765625 7.699219 L 350.679688 7.699219 L 350.679688 351.613281 L 6.765625 351.613281 Z M 6.765625 7.699219 " clip-rule="nonzero"/></clipPath><clipPath id="8496ef0607"><path d="M 178.722656 7.699219 C 83.753906 7.699219 6.765625 84.6875 6.765625 179.65625 C 6.765625 274.625 83.753906 351.613281 178.722656 351.613281 C 273.691406 351.613281 350.679688 274.625 350.679688 179.65625 C 350.679688 84.6875 273.691406 7.699219 178.722656 7.699219 Z M 178.722656 7.699219 " clip-rule="nonzero"/></clipPath><clipPath id="abc04beef2"><path d="M 0.765625 0.699219 L 344.679688 0.699219 L 344.679688 344.613281 L 0.765625 344.613281 Z M 0.765625 0.699219 " clip-rule="nonzero"/></clipPath><clipPath id="b0c50b0b37"><path d="M 172.722656 0.699219 C 77.753906 0.699219 0.765625 77.6875 0.765625 172.65625 C 0.765625 267.625 77.753906 344.613281 172.722656 344.613281 C 267.691406 344.613281 344.679688 267.625 344.679688 172.65625 C 344.679688 77.6875 267.691406 0.699219 172.722656 0.699219 Z M 172.722656 0.699219 " clip-rule="nonzero"/></clipPath><clipPath id="6ee65f162b"><rect x="0" width="345" y="0" height="345"/></clipPath><clipPath id="5bc1701b8a"><path d="M 0 0.0273438 L 359.195312 0.0273438 L 359.195312 359.222656 L 0 359.222656 Z M 0 0.0273438 " clip-rule="nonzero"/></clipPath><clipPath id="787dd03a45"><path d="M 179.628906 0.0273438 C 80.421875 0.0273438 0 80.449219 0 179.65625 C 0 278.859375 80.421875 359.28125 179.628906 359.28125 C 278.832031 359.28125 359.253906 278.859375 359.253906 179.65625 C 359.253906 80.449219 278.832031 0.0273438 179.628906 0.0273438 Z M 179.628906 0.0273438 " clip-rule="nonzero"/></clipPath><clipPath id="eb00b4454b"><path d="M 19.195312 19.367188 L 340.546875 19.367188 L 340.546875 340.714844 L 19.195312 340.714844 Z M 19.195312 19.367188 " clip-rule="nonzero"/></clipPath><clipPath id="7c30fc833a"><path d="M 179.871094 19.367188 C 91.132812 19.367188 19.195312 91.304688 19.195312 180.042969 C 19.195312 268.78125 91.132812 340.714844 179.871094 340.714844 C 268.609375 340.714844 340.546875 268.78125 340.546875 180.042969 C 340.546875 91.304688 268.609375 19.367188 179.871094 19.367188 Z M 179.871094 19.367188 " clip-rule="nonzero"/></clipPath><clipPath id="bed6ff34b1"><path d="M 135 217 L 225 217 L 225 317 L 135 317 Z M 135 217 " clip-rule="nonzero"/></clipPath><clipPath id="32788418c5"><path d="M 136.558594 216.273438 L 225.03125 217.835938 L 223.265625 317.558594 L 134.792969 315.992188 Z M 136.558594 216.273438 " clip-rule="nonzero"/></clipPath><clipPath id="eadcec732c"><path d="M 133.171875 216.210938 L 227.980469 217.890625 L 226.179688 319.46875 L 131.375 317.789062 Z M 133.171875 216.210938 " clip-rule="nonzero"/></clipPath><clipPath id="9566269f73"><path d="M 180.90625 217.054688 C 156.414062 216.625 136.164062 238.527344 135.679688 265.984375 C 135.191406 293.441406 154.652344 316.050781 179.144531 316.484375 C 203.636719 316.917969 223.886719 295.011719 224.375 267.554688 C 224.859375 240.097656 205.398438 217.488281 180.90625 217.054688 Z M 180.90625 217.054688 " clip-rule="nonzero"/></clipPath><clipPath id="394ca8cbce"><path d="M 49 97 L 312 97 L 312 262 L 49 262 Z M 49 97 " clip-rule="nonzero"/></clipPath><clipPath id="fbf5cf6e3e"><path d="M 67.921875 73.914062 L 327.460938 227.257812 L 293.128906 285.363281 L 33.589844 132.023438 Z M 67.921875 73.914062 " clip-rule="nonzero"/></clipPath><clipPath id="8e07f4e7c3"><path d="M 67.933594 73.921875 L 328.210938 227.699219 L 293.191406 286.96875 L 32.914062 133.195312 Z M 67.933594 73.921875 " clip-rule="nonzero"/></clipPath><clipPath id="c2079d3072"><path d="M 197.816406 150.660156 C 126.085938 108.28125 60.265625 86.902344 50.804688 102.914062 C 41.34375 118.929688 91.824219 166.265625 163.558594 208.644531 C 235.289062 251.027344 301.109375 272.402344 310.570312 256.390625 C 320.03125 240.378906 269.550781 193.042969 197.816406 150.660156 Z M 197.816406 150.660156 " clip-rule="nonzero"/></clipPath><clipPath id="31cadc8f7a"><path d="M 151 85 L 209 85 L 209 142 L 151 142 Z M 151 85 " clip-rule="nonzero"/></clipPath><clipPath id="a6db60606d"><path d="M 151.785156 85.027344 L 209.515625 86.050781 L 208.519531 142.28125 L 150.789062 141.261719 Z M 151.785156 85.027344 " clip-rule="nonzero"/></clipPath><clipPath id="86c189bd47"><path d="M 149.589844 84.988281 L 211.058594 86.078125 L 210.050781 143.15625 L 148.578125 142.070312 Z M 149.589844 84.988281 " clip-rule="nonzero"/></clipPath><clipPath id="4e77e3c2f0"><path d="M 180.539062 85.535156 C 164.660156 85.257812 151.5625 97.539062 151.289062 112.972656 C 151.015625 128.410156 163.667969 141.148438 179.550781 141.429688 C 195.429688 141.710938 208.523438 129.425781 208.796875 113.992188 C 209.070312 98.558594 196.417969 85.816406 180.539062 85.535156 Z M 180.539062 85.535156 " clip-rule="nonzero"/></clipPath><clipPath id="c518092c33"><path d="M 48 98 L 311 98 L 311 262 L 48 262 Z M 48 98 " clip-rule="nonzero"/></clipPath><clipPath id="285cb37292"><path d="M 32.488281 227.4375 L 292.398438 74.722656 L 326.585938 132.914062 L 66.675781 285.625 Z M 32.488281 227.4375 " clip-rule="nonzero"/></clipPath><clipPath id="0e36c2c318"><path d="M 32.5 227.429688 L 293.144531 74.285156 L 328.019531 133.640625 L 67.375 286.785156 Z M 32.5 227.429688 " clip-rule="nonzero"/></clipPath><clipPath id="306acf84ca"><path d="M 162.566406 151.007812 C 90.734375 193.214844 40.136719 240.429688 49.558594 256.464844 C 58.980469 272.5 124.851562 251.28125 196.6875 209.074219 C 268.519531 166.867188 319.117188 119.652344 309.695312 103.617188 C 300.273438 87.582031 234.402344 108.800781 162.566406 151.007812 Z M 162.566406 151.007812 " clip-rule="nonzero"/></clipPath><clipPath id="0672e41390"><path d="M 147.164062 147.335938 L 212.40625 147.335938 L 212.40625 212.574219 L 147.164062 212.574219 Z M 147.164062 147.335938 " clip-rule="nonzero"/></clipPath><clipPath id="1e5e8206dd"><path d="M 179.871094 147.335938 C 161.808594 147.335938 147.164062 161.976562 147.164062 180.042969 C 147.164062 198.105469 161.808594 212.75 179.871094 212.75 C 197.9375 212.75 212.578125 198.105469 212.578125 180.042969 C 212.578125 161.976562 197.9375 147.335938 179.871094 147.335938 Z M 179.871094 147.335938 " clip-rule="nonzero"/></clipPath><clipPath id="d2866e44e6"><rect x="0" width="1209" y="0" height="273"/></clipPath><clipPath id="73885d5705"><path d="M 1578.546875 220.011719 L 1644.5 220.011719 L 1644.5 286 L 1578.546875 286 Z M 1578.546875 220.011719 " clip-rule="nonzero"/></clipPath></defs><g clip-path="url(#faeafcf509)"><g clip-path="url(#8496ef0607)"><g transform="matrix(1, 0, 0, 1, 6, 7)"><g clip-path="url(#6ee65f162b)"><g clip-path="url(#abc04beef2)"><g clip-path="url(#b0c50b0b37)"><path fill="#ecec00" d="M 0.765625 0.699219 L 344.679688 0.699219 L 344.679688 344.613281 L 0.765625 344.613281 Z M 0.765625 0.699219 " fill-opacity="1" fill-rule="nonzero"/></g></g></g></g></g></g><g clip-path="url(#5bc1701b8a)"><g clip-path="url(#787dd03a45)"><path stroke-linecap="butt" transform="matrix(0.749886, 0, 0, 0.749886, -0.000000000000021313, 0.0284909)" fill="none" stroke-linejoin="miter" d="M 239.541607 -0.00152982 C 107.245463 -0.00152982 0.000000000000028422 107.243933 0.000000000000028422 239.540078 C 0.000000000000028422 371.831013 107.245463 479.076476 239.541607 479.076476 C 371.832543 479.076476 479.078006 371.831013 479.078006 239.540078 C 479.078006 107.243933 371.832543 -0.00152982 239.541607 -0.00152982 Z M 239.541607 -0.00152982 " stroke="#5c5c5c" stroke-width="26" stroke-opacity="1" stroke-miterlimit="4"/></g></g><g clip-path="url(#eb00b4454b)"><g clip-path="url(#7c30fc833a)"><path stroke-linecap="butt" transform="matrix(0.749886, 0, 0, 0.749886, 19.196567, 19.366533)" fill="none" stroke-linejoin="miter" d="M 214.265275 0.000873098 C 95.929577 0.000873098 -0.00167263 95.932123 -0.00167263 214.26782 C -0.00167263 332.603518 95.929577 428.529559 214.265275 428.529559 C 332.600972 428.529559 428.532222 332.603518 428.532222 214.26782 C 428.532222 95.932123 332.600972 0.000873098 214.265275 0.000873098 Z M 214.265275 0.000873098 " stroke="#5c5c5c" stroke-width="30" stroke-opacity="1" stroke-miterlimit="4"/></g></g><g clip-path="url(#bed6ff34b1)"><g clip-path="url(#32788418c5)"><g clip-path="url(#eadcec732c)"><g clip-path="url(#9566269f73)"><path stroke-linecap="butt" transform="matrix(0.749769, 0.0132679, -0.0132679, 0.749769, 136.557665, 216.271853)" fill="none" stroke-linejoin="miter" d="M 59.149647 -0.00261186 C 26.483408 0.00235692 0.000308097 29.683138 0.00231479 66.303774 C -0.000886835 102.924503 26.48037 132.611025 59.146701 132.611265 C 91.813032 132.611504 118.296039 102.925515 118.299241 66.304786 C 118.297234 29.68415 91.815978 -0.00237234 59.149647 -0.00261186 Z M 59.149647 -0.00261186 " stroke="#5c5c5c" stroke-width="22" stroke-opacity="1" stroke-miterlimit="4"/></g></g></g></g><g clip-path="url(#394ca8cbce)"><g clip-path="url(#fbf5cf6e3e)"><g clip-path="url(#8e07f4e7c3)"><g clip-path="url(#c2079d3072)"><path stroke-linecap="butt" transform="matrix(0.645622, 0.381447, -0.381447, 0.645622, 67.933086, 73.923252)" fill="none" stroke-linejoin="miter" d="M 201.174976 -0.000911566 C 90.072689 0.000131578 0.000975539 20.102663 -0.0000457459 44.903724 C 0.00158271 69.70927 90.068815 89.81408 201.175587 89.810387 C 312.280523 89.813829 402.349587 69.706812 402.350609 44.905752 C 402.35163 20.104691 312.284398 -0.000119601 201.174976 -0.000911566 Z M 201.174976 -0.000911566 " stroke="#5c5c5c" stroke-width="20" stroke-opacity="1" stroke-miterlimit="4"/></g></g></g></g><g clip-path="url(#31cadc8f7a)"><g clip-path="url(#a6db60606d)"><g clip-path="url(#86c189bd47)"><g clip-path="url(#4e77e3c2f0)"><path stroke-linecap="butt" transform="matrix(0.749769, 0.0132679, -0.0132679, 0.749769, 151.785229, 85.028068)" fill="none" stroke-linejoin="miter" d="M 38.350236 -0.00231937 C 17.171913 0.00254672 -0.00177889 16.686506 -0.00221145 37.27099 C -0.00255185 57.860682 17.167718 74.546454 38.351342 74.546704 C 59.529757 74.547046 76.698149 57.85797 76.698581 37.273487 C 76.699014 16.689003 59.528652 -0.00197714 38.350236 -0.00231937 Z M 38.350236 -0.00231937 " stroke="#5c5c5c" stroke-width="20" stroke-opacity="1" stroke-miterlimit="4"/></g></g></g></g><path stroke-linecap="butt" transform="matrix(-0.310285, 0.68268, -0.68268, -0.310285, 228.000257, 27.061496)" fill="none" stroke-linejoin="miter" d="M 26.248974 3.50201 L 100.919426 3.500334 " stroke="#5c5c5c" stroke-width="7" stroke-opacity="1" stroke-miterlimit="4"/><path stroke-linecap="round" transform="matrix(-0.310285, 0.68268, -0.68268, -0.310285, 228.000257, 27.061496)" fill-opacity="1" fill="#5c5c5c" fill-rule="nonzero" stroke-linejoin="round" d="M 3.498854 3.502632 C 3.499457 -2.29968 8.200853 -6.999937 13.998423 -6.997179 C 19.798581 -7.001319 24.498837 -2.299923 24.498235 3.50239 C 24.50022 9.297805 19.798823 13.998061 13.998666 14.002201 C 8.201095 13.999444 3.500839 9.298048 3.498854 3.502632 " stroke="#5c5c5c" stroke-width="7" stroke-opacity="1" stroke-miterlimit="4"/><g clip-path="url(#c518092c33)"><g clip-path="url(#285cb37292)"><g clip-path="url(#0e36c2c318)"><g clip-path="url(#306acf84ca)"><path stroke-linecap="butt" transform="matrix(0.646544, -0.379882, 0.379882, 0.646544, 32.498927, 227.429542)" fill="none" stroke-linejoin="miter" d="M 201.173222 0.000496663 C 90.07059 0.00229141 -0.000626813 20.106771 -0.000288937 44.908317 C 0.0000489395 69.709862 90.07038 89.81265 201.177503 89.813494 C 312.280136 89.811699 402.351352 69.70722 402.351014 44.905674 C 402.350676 20.104128 312.280345 0.00134078 201.173222 0.000496663 Z M 201.173222 0.000496663 " stroke="#5c5c5c" stroke-width="20" stroke-opacity="1" stroke-miterlimit="4"/></g></g></g></g><path stroke-linecap="butt" transform="matrix(0.34559, 0.665505, -0.665505, 0.34559, 132.597888, 25.964129)" fill="none" stroke-linejoin="miter" d="M 26.251267 3.501433 L 101.030623 3.500308 " stroke="#5c5c5c" stroke-width="7" stroke-opacity="1" stroke-miterlimit="4"/><path stroke-linecap="round" transform="matrix(0.34559, 0.665505, -0.665505, 0.34559, 132.597888, 25.964129)" fill-opacity="1" fill="#5c5c5c" fill-rule="nonzero" stroke-linejoin="round" d="M 3.500121 3.502503 C 3.500392 -2.296526 8.201838 -6.998421 14.000867 -6.99815 C 19.799897 -6.997879 24.497169 -2.298834 24.501521 3.502596 C 24.501249 9.301625 19.802204 13.998898 14.000774 14.003249 C 8.201745 14.002978 3.49985 9.301532 3.500121 3.502503 " stroke="#5c5c5c" stroke-width="7" stroke-opacity="1" stroke-miterlimit="4"/><g clip-path="url(#0672e41390)"><g clip-path="url(#1e5e8206dd)"><path stroke-linecap="butt" transform="matrix(0.749886, 0, 0, 0.749886, 147.164232, 147.334191)" fill="none" stroke-linejoin="miter" d="M 43.615779 0.0023286 C 19.528784 0.0023286 -0.000226412 19.52613 -0.000226412 43.618334 C -0.000226412 67.705329 19.528784 87.234339 43.615779 87.234339 C 67.707983 87.234339 87.231784 67.705329 87.231784 43.618334 C 87.231784 19.52613 67.707983 0.0023286 43.615779 0.0023286 Z M 43.615779 0.0023286 " stroke="#5c5c5c" stroke-width="20" stroke-opacity="1" stroke-miterlimit="4"/></g></g><path stroke-linecap="butt" transform="matrix(0.749886, 0, 0, 0.749886, 141.551834, 262.440313)" fill="none" stroke-linejoin="miter" d="M 1.748863 3.663473 C 33.373462 19.019974 66.67019 19.019974 101.62342 3.663473 " stroke="#5c5c5c" stroke-width="8" stroke-opacity="1" stroke-miterlimit="4"/><path stroke-linecap="butt" transform="matrix(0.749886, 0, 0, 0.749886, 141.594396, 283.825245)" fill="none" stroke-linejoin="miter" d="M 1.494158 3.707529 C 34.978414 17.209581 68.29077 17.209581 101.426016 3.707529 " stroke="#5c5c5c" stroke-width="8" stroke-opacity="1" stroke-miterlimit="4"/><path stroke-linecap="butt" transform="matrix(0.749886, 0, 0, 0.749886, 145.752292, 240.650265)" fill="none" stroke-linejoin="miter" d="M 1.653446 3.64916 C 30.26717 16.619881 59.063215 16.619881 88.03116 3.64916 " stroke="#5c5c5c" stroke-width="8" stroke-opacity="1" stroke-miterlimit="4"/><path stroke-linecap="butt" transform="matrix(0.749886, 0, 0, 0.749886, 150.246614, 168.079829)" fill="none" stroke-linejoin="miter" d="M 0.733793 3.930617 C 28.941206 9.181415 54.945159 9.181415 78.745652 3.930617 " stroke="#5c5c5c" stroke-width="8" stroke-opacity="1" stroke-miterlimit="4"/><path stroke-linecap="butt" transform="matrix(0.749886, 0, 0, 0.749886, 150.089313, 184.38367)" fill="none" stroke-linejoin="miter" d="M 1.006069 3.874445 C 27.458007 10.729654 53.46196 10.729654 79.017928 3.874445 " stroke="#5c5c5c" stroke-width="8" stroke-opacity="1" stroke-miterlimit="4"/><g transform="matrix(1, 0, 0, 1, 367, 68)"><g clip-path="url(#d2866e44e6)"><g fill="#5c5c5c" fill-opacity="1"><g transform="translate(1.355996, 219.221947)"><g><path d="M 172.453125 -108.125 C 184.960938 -104.351562 194.890625 -97.945312 202.234375 -88.90625 C 209.585938 -79.875 213.265625 -69.101562 213.265625 -56.59375 C 213.265625 -39.113281 206.210938 -25.3125 192.109375 -15.1875 C 178.015625 -5.0625 158.554688 0 133.734375 0 L 22.640625 0 L 22.640625 -208.5 L 131.0625 -208.5 C 154.09375 -208.5 172.109375 -203.878906 185.109375 -194.640625 C 198.117188 -185.410156 204.625 -172.457031 204.625 -155.78125 C 204.625 -144.851562 201.742188 -135.171875 195.984375 -126.734375 C 190.234375 -118.296875 182.390625 -112.09375 172.453125 -108.125 Z M 121.234375 -168 L 72.96875 -168 L 72.96875 -123.609375 L 121.234375 -123.609375 C 132.742188 -123.609375 141.128906 -125.492188 146.390625 -129.265625 C 151.660156 -133.046875 154.296875 -138.609375 154.296875 -145.953125 C 154.296875 -153.691406 151.5625 -159.300781 146.09375 -162.78125 C 140.632812 -166.257812 132.347656 -168 121.234375 -168 Z M 72.96875 -40.515625 L 126.890625 -40.515625 C 139.203125 -40.515625 148.1875 -42.445312 153.84375 -46.3125 C 159.5 -50.1875 162.328125 -55.894531 162.328125 -63.4375 C 162.328125 -71.582031 159.296875 -77.488281 153.234375 -81.15625 C 147.179688 -84.832031 138.101562 -86.671875 126 -86.671875 L 72.96875 -86.671875 Z M 72.96875 -40.515625 "/></g></g></g><g fill="#5c5c5c" fill-opacity="1"><g transform="translate(226.244952, 219.221947)"><g><path d="M 73.875 0 L 22.640625 0 L 22.640625 -208.5 L 73.875 -208.5 Z M 73.875 0 "/></g></g></g><g fill="#5c5c5c" fill-opacity="1"><g transform="translate(322.753569, 219.221947)"><g><path d="M 72.96875 -86.671875 L 72.96875 -42.296875 L 195.390625 -42.296875 L 195.390625 0 L 22.640625 0 L 22.640625 -208.5 L 192.421875 -208.5 L 192.421875 -166.203125 L 72.96875 -166.203125 L 72.96875 -126.890625 L 178.71875 -126.890625 L 178.71875 -86.671875 Z M 72.96875 -86.671875 "/></g></g></g><g fill="#ecec00" fill-opacity="1"><g transform="translate(530.673514, 219.221947)"><g><path d="M 73.875 0 L 22.640625 0 L 22.640625 -208.5 L 70 -208.5 L 173.953125 -81.3125 L 173.953125 -208.5 L 225.1875 -208.5 L 225.1875 0 L 179.3125 0 L 73.875 -129.265625 Z M 73.875 0 "/></g></g></g><g fill="#ecec00" fill-opacity="1"><g transform="translate(778.498177, 219.221947)"><g><path d="M 72.96875 -86.671875 L 72.96875 -42.296875 L 195.390625 -42.296875 L 195.390625 0 L 22.640625 0 L 22.640625 -208.5 L 192.421875 -208.5 L 192.421875 -166.203125 L 72.96875 -166.203125 L 72.96875 -126.890625 L 178.71875 -126.890625 L 178.71875 -86.671875 Z M 72.96875 -86.671875 "/></g></g></g><g fill="#ecec00" fill-opacity="1"><g transform="translate(986.408753, 219.221947)"><g><path d="M 126.59375 -106.03125 L 217.140625 -0.296875 L 154.890625 -0.296875 L 74.171875 -94.421875 L 74.171875 0 L 22.9375 0 L 22.640625 -208.5 L 74.171875 -208.5 L 74.171875 -116.46875 L 152.5 -208.796875 L 215.046875 -208.796875 Z M 126.59375 -106.03125 "/></g></g></g></g></g><path stroke-linecap="butt" transform="matrix(0.749886, 0, 0, 0.749886, 389.722222, 316.556012)" fill="none" stroke-linejoin="miter" d="M 0.000579548 19.501199 L 1573.29704 19.501199 " stroke="#ecec00" stroke-width="39" stroke-opacity="1" stroke-miterlimit="4"/><path fill="#ecec00" d="M 1612.003906 252.996094 C 1615.785156 252.996094 1618.257812 250.941406 1618.257812 247.164062 C 1618.257812 243.382812 1615.785156 241.5625 1611.910156 241.5625 L 1605.890625 241.5625 L 1605.890625 252.996094 Z M 1600.523438 236.664062 L 1612.238281 236.664062 C 1619.238281 236.664062 1623.714844 240.394531 1623.714844 247.070312 C 1623.714844 252.109375 1620.917969 255.28125 1616.949219 256.683594 L 1624.601562 269.328125 L 1618.351562 269.328125 L 1611.441406 257.804688 C 1611.398438 257.757812 1609.714844 257.804688 1609.667969 257.804688 L 1605.890625 257.804688 L 1605.890625 269.328125 L 1600.523438 269.328125 L 1600.523438 236.664062 " fill-opacity="1" fill-rule="nonzero"/><g clip-path="url(#73885d5705)"><path fill="#ecec00" d="M 1611.511719 225.667969 C 1607.824219 225.667969 1604.25 226.390625 1600.882812 227.8125 C 1597.632812 229.1875 1594.710938 231.15625 1592.203125 233.667969 C 1589.691406 236.175781 1587.722656 239.097656 1586.347656 242.347656 C 1584.925781 245.714844 1584.203125 249.289062 1584.203125 252.976562 C 1584.203125 256.664062 1584.925781 260.242188 1586.347656 263.605469 C 1587.722656 266.859375 1589.691406 269.78125 1592.203125 272.289062 C 1594.710938 274.796875 1597.632812 276.765625 1600.882812 278.140625 C 1604.25 279.566406 1607.824219 280.285156 1611.511719 280.285156 C 1615.199219 280.285156 1618.777344 279.566406 1622.140625 278.140625 C 1625.394531 276.765625 1628.316406 274.796875 1630.824219 272.289062 C 1633.332031 269.78125 1635.300781 266.859375 1636.679688 263.605469 C 1638.101562 260.242188 1638.824219 256.664062 1638.824219 252.976562 C 1638.824219 249.289062 1638.101562 245.714844 1636.679688 242.347656 C 1635.300781 239.097656 1633.332031 236.175781 1630.824219 233.667969 C 1628.316406 231.15625 1625.394531 229.1875 1622.140625 227.8125 C 1618.777344 226.390625 1615.199219 225.667969 1611.511719 225.667969 Z M 1611.511719 285.945312 C 1607.0625 285.945312 1602.746094 285.074219 1598.679688 283.355469 C 1594.753906 281.695312 1591.226562 279.316406 1588.199219 276.289062 C 1585.171875 273.261719 1582.796875 269.738281 1581.136719 265.8125 C 1579.414062 261.746094 1578.542969 257.425781 1578.542969 252.976562 C 1578.542969 248.527344 1579.414062 244.210938 1581.136719 240.144531 C 1582.796875 236.21875 1585.171875 232.691406 1588.199219 229.664062 C 1591.226562 226.636719 1594.753906 224.261719 1598.679688 222.601562 C 1602.746094 220.878906 1607.0625 220.007812 1611.511719 220.007812 C 1615.960938 220.007812 1620.28125 220.878906 1624.347656 222.601562 C 1628.273438 224.261719 1631.800781 226.636719 1634.824219 229.664062 C 1637.851562 232.691406 1640.230469 236.21875 1641.890625 240.144531 C 1643.609375 244.210938 1644.484375 248.527344 1644.484375 252.976562 C 1644.484375 257.425781 1643.609375 261.746094 1641.890625 265.8125 C 1640.230469 269.738281 1637.851562 273.261719 1634.824219 276.289062 C 1631.800781 279.316406 1628.273438 281.695312 1624.347656 283.355469 C 1620.28125 285.074219 1615.960938 285.945312 1611.511719 285.945312 " fill-opacity="1" fill-rule="nonzero"/></g></svg>