<svg width="16" height="16" viewBox="0 0 16 16" fill="none" xmlns="http://www.w3.org/2000/svg">
<path d="M11.5333 8.88352L7.88984 12.527L6.95578 11.593L9.93682 8.61191H0V7.287H9.93682L6.95578 4.30596L7.88984 3.3719L11.5333 7.0154C12.0501 7.53211 12.0501 8.37343 11.5333 8.89015V8.88352ZM13.9116 0H10.5993V1.32491H13.9116C14.2759 1.32491 14.574 1.62301 14.574 1.98736V13.9116C14.574 14.2759 14.2759 14.574 13.9116 14.574H10.5993V15.8989H13.9116C15.0046 15.8989 15.8989 15.0046 15.8989 13.9116V1.98736C15.8989 0.894314 15.0046 0 13.9116 0Z" fill="black"/>
</svg>
