<svg width="78" height="78" viewBox="0 0 78 78" fill="none" xmlns="http://www.w3.org/2000/svg">
<g clip-path="url(#clip0_142_1425)">
<path d="M39.0005 19.5C36.4293 19.5 33.9159 20.2624 31.7781 21.6909C29.6402 23.1194 27.974 25.1497 26.9901 27.5251C26.0061 29.9006 25.7487 32.5144 26.2503 35.0362C26.7519 37.5579 27.99 39.8743 29.8081 41.6924C31.6262 43.5105 33.9426 44.7486 36.4643 45.2502C38.9861 45.7518 41.5999 45.4944 43.9754 44.5104C46.3508 43.5265 48.3811 41.8603 49.8096 39.7224C51.2381 37.5846 52.0005 35.0712 52.0005 32.5C52.0005 29.0522 50.6309 25.7456 48.1929 23.3076C45.7549 20.8696 42.4483 19.5 39.0005 19.5ZM39.0005 39C37.7149 39 36.4582 38.6188 35.3893 37.9046C34.3204 37.1903 33.4872 36.1752 32.9953 34.9874C32.5033 33.7997 32.3746 32.4928 32.6254 31.2319C32.8762 29.971 33.4953 28.8128 34.4043 27.9038C35.3133 26.9948 36.4715 26.3757 37.7324 26.1249C38.9933 25.8741 40.3002 26.0028 41.4879 26.4948C42.6757 26.9868 43.6908 27.8199 44.405 28.8888C45.1193 29.9577 45.5005 31.2144 45.5005 32.5C45.5005 34.2239 44.8157 35.8772 43.5967 37.0962C42.3777 38.3152 40.7244 39 39.0005 39Z" fill="black"/>
<path d="M38.9995 78.0009C36.2629 78.0149 33.5627 77.373 31.125 76.1291C28.6874 74.8851 26.5832 73.0752 24.9888 70.8509C12.603 53.7656 6.3208 40.9216 6.3208 32.6731C6.3208 24.0062 9.76373 15.6942 15.8922 9.56577C22.0206 3.43732 30.3326 -0.00561523 38.9995 -0.00561523C47.6665 -0.00561523 55.9785 3.43732 62.1069 9.56577C68.2354 15.6942 71.6783 24.0062 71.6783 32.6731C71.6783 40.9216 65.3961 53.7656 53.0103 70.8509C51.4159 73.0752 49.3117 74.8851 46.8741 76.1291C44.4364 77.373 41.7362 78.0149 38.9995 78.0009V78.0009ZM38.9995 7.08914C32.2149 7.09688 25.7104 9.7955 20.9129 14.593C16.1154 19.3904 13.4168 25.895 13.409 32.6796C13.409 39.2121 19.5613 51.2924 30.7283 66.6941C31.6763 67.9999 32.92 69.0627 34.3576 69.7955C35.7952 70.5283 37.3859 70.9104 38.9995 70.9104C40.6132 70.9104 42.2039 70.5283 43.6415 69.7955C45.0791 69.0627 46.3228 67.9999 47.2708 66.6941C58.4378 51.2924 64.59 39.2121 64.59 32.6796C64.5823 25.895 61.8837 19.3904 57.0862 14.593C52.2887 9.7955 45.7842 7.09688 38.9995 7.08914V7.08914Z" fill="black"/>
</g>
<defs>
<clipPath id="clip0_142_1425">
<rect width="78" height="78" fill="white"/>
</clipPath>
</defs>
</svg>
